<svg xmlns="http://www.w3.org/2000/svg" viewBox="0 0 1828.58 593.22"><title>Asset 71</title><g id="Layer_2" data-name="Layer 2"><g id="Layer_1-2" data-name="Layer 1"><path d="M1309,170.43c9.2,0,16.56,2.76,22.2,8.4s8.28,13.57,8.28,23.58v22c0,10.12-2.76,18-8.28,23.58s-13,8.52-22.2,8.52h-20.71q-3.11,0-3.11-3.11V173.54c0-2.08,1-3.11,3.11-3.11Zm-13.23,9.66v66.72h12.77c12.77,0,20.24-8.16,20.24-22.77v-21.4c0-14.38-7.47-22.55-20.24-22.55Z" style="fill:#fff"/><path d="M1361.2,230.59V236c0,7.94,4,12.88,10.93,12.88,6.21,0,9.78-2.64,10.7-8,.46-2,1.61-3,3.33-3h3.57c2.42,0,3.34,1.15,3,3.34-1.72,10.12-9.09,16.45-20.48,16.45-12.88,0-20.93-8.4-20.93-22.09V218.86c0-13.69,7.71-22.09,20.93-22.09s20.83,8.52,20.83,22.66v8.06q0,3.1-3.11,3.1Zm0-12.08v4h22v-4c0-8.62-3.68-13-11-13C1365.23,205.51,1361.2,210.58,1361.2,218.51Z" style="fill:#fff"/><path d="M1478,217v36.35q0,3.11-3.1,3.11h-3.69q-3.11,0-3.1-3.11V219c0-7.82-3.57-12.65-10.12-12.65-6.1,0-10.7,5.41-10.7,12.77v34.28q0,3.11-3.11,3.11h-3.68q-3.11,0-3.11-3.11V219c0-7.82-3.68-12.65-10.23-12.65-6.1,0-10.7,5.41-10.7,12.77v34.28q0,3.11-3.11,3.11h-3.68q-3.11,0-3.11-3.11V200.91q0-3.1,3.11-3.1h3.22q3.11,0,3.11,3.1v3.22c2-4,6.9-7.36,13.92-7.36s12,2.88,14.95,8.63c2.65-5.06,8.05-8.63,15.42-8.63C1471.4,196.77,1478,204.25,1478,217Z" style="fill:#fff"/><path d="M1512.82,196.77c6.67,0,12,2,15.87,6s5.75,9.32,5.75,16v16.8c0,13.34-8.28,22.09-21.62,22.09s-21.75-8.63-21.75-22.09v-16.8c0-6.67,2-12,5.87-16S1506.14,196.77,1512.82,196.77Zm0,8.74a10.79,10.79,0,0,0-8.63,3.69c-2.19,2.41-3.22,5.75-3.22,10v16c0,8.4,4.48,13.69,11.85,13.69s11.73-5.29,11.73-13.69v-16q0-6.37-3.11-10A10.77,10.77,0,0,0,1512.82,205.51Z" style="fill:#fff"/><path d="M1557.91,253.37q0,3.11-3.11,3.11h-3.68q-3.11,0-3.1-3.11V171.58q0-3.11,3.1-3.11h3.68q3.1,0,3.11,3.11Z" style="fill:#fff"/><path d="M1582.41,172.84a6.26,6.26,0,0,1,0,8.63,6.14,6.14,0,0,1-10.47-4.25,5.87,5.87,0,0,1,1.84-4.38A6.05,6.05,0,0,1,1582.41,172.84Zm.57,80.53q0,3.11-3.1,3.11h-3.68q-3.1,0-3.11-3.11V200.91q0-3.1,3.11-3.1h3.68q3.11,0,3.1,3.1Z" style="fill:#fff"/><path d="M1610.82,206.32l-.23,32.79c0,6.78,2.07,9.31,6.67,9.31a15,15,0,0,0,2.19-.23c2.3-.34,3.45.46,3.45,2.65v2.53c0,2-.8,3.11-2.53,3.45a27.93,27.93,0,0,1-5.64.58c-9.43,0-14.15-5.06-14-15.19l.11-35.89h-5.63c-2.07,0-3.11-1-3.11-3.11v-2.3q0-3.1,3.11-3.1h5.63l.12-17.14q0-3.1,3.11-3.11h3.79q3.11,0,3.11,3.11l-.12,17.14h9.09q3.1,0,3.11,3.1v2.3c0,2.08-1,3.11-3.11,3.11Z" style="fill:#fff"/><path d="M1642.46,172.84a6.26,6.26,0,0,1,0,8.63,6.14,6.14,0,0,1-10.47-4.25,5.83,5.83,0,0,1,1.84-4.38A6.05,6.05,0,0,1,1642.46,172.84Zm.57,80.53q0,3.11-3.1,3.11h-3.68c-2.08,0-3.11-1-3.11-3.11V200.91c0-2.07,1-3.1,3.11-3.1h3.68q3.1,0,3.1,3.1Z" style="fill:#fff"/><path d="M1678.12,196.77c6.67,0,12,2,15.87,6s5.75,9.32,5.75,16v16.8c0,13.34-8.28,22.09-21.62,22.09s-21.74-8.63-21.74-22.09v-16.8c0-6.67,1.95-12,5.86-16S1671.44,196.77,1678.12,196.77Zm0,8.74a10.79,10.79,0,0,0-8.63,3.69c-2.19,2.41-3.22,5.75-3.22,10v16c0,8.4,4.48,13.69,11.85,13.69s11.73-5.29,11.73-13.69v-16q0-6.37-3.11-10A10.77,10.77,0,0,0,1678.12,205.51Z" style="fill:#fff"/><path d="M1754.15,217v36.35q0,3.11-3.1,3.11h-3.8q-3.11,0-3.1-3.11V219c0-7.82-3.57-12.65-10-12.65s-10.93,5.41-10.93,12.77v34.28q0,3.11-3.11,3.11h-3.68q-3.11,0-3.1-3.11V200.91q0-3.1,3.1-3.1h3.22q3.1,0,3.11,3.1v3.22c2-4,6.67-7.36,13.69-7.36C1747.37,196.77,1754.15,204.48,1754.15,217Z" style="fill:#fff"/><path d="M1339.12,335.51c.11,2.18-.92,3.22-3.11,3.22h-4.49c-2,0-3-1-3.1-3.11-1-12.31-6.79-18.52-17.26-18.52-11.16,0-17.37,8.51-17.37,22.43v23.93c0,14.26,6.33,22.43,17.37,22.43q15.71,0,17.26-18.63c.11-2.08,1.15-3.11,3.1-3.11H1336c2.19,0,3.22,1,3.11,3.22-1.39,17.37-11.51,28.3-27.73,28.3-17.83,0-28.18-12.19-28.18-32V339.3c0-19.67,10.24-32,28.18-32C1327.61,307.32,1337.73,318.13,1339.12,335.51Z" style="fill:#fff"/><path d="M1372.47,334.82c6.68,0,12,1.95,15.88,6s5.75,9.32,5.75,16v16.79c0,13.35-8.28,22.09-21.63,22.09s-21.74-8.63-21.74-22.09V356.79c0-6.67,2-12,5.87-16S1365.8,334.82,1372.47,334.82Zm0,8.74a10.77,10.77,0,0,0-8.62,3.68c-2.19,2.41-3.22,5.75-3.22,10v16c0,8.39,4.48,13.69,11.84,13.69s11.74-5.3,11.74-13.69v-16q0-6.39-3.11-10A10.77,10.77,0,0,0,1372.47,343.56Z" style="fill:#fff"/><path d="M1448.51,355.06v36.35q0,3.1-3.1,3.11h-3.8q-3.1,0-3.11-3.11V357c0-7.83-3.56-12.66-10-12.66s-10.93,5.41-10.93,12.77v34.28q0,3.1-3.11,3.11h-3.68q-3.1,0-3.11-3.11V339q0-3.1,3.11-3.11H1414q3.11,0,3.11,3.11v3.22c2-4,6.67-7.36,13.69-7.36C1441.72,334.82,1448.51,342.52,1448.51,355.06Z" style="fill:#fff"/><path d="M1476.12,344.36l-.23,32.79c0,6.79,2.07,9.32,6.67,9.32a16.67,16.67,0,0,0,2.19-.23c2.3-.35,3.45.46,3.45,2.64v2.53c0,2-.81,3.11-2.53,3.45a28,28,0,0,1-5.64.58c-9.43,0-14.15-5.06-14-15.19l.11-35.89h-5.64q-3.1,0-3.1-3.1V339q0-3.1,3.1-3.11h5.64l.11-17.14q0-3.1,3.11-3.11h3.8q3.11,0,3.1,3.11l-.11,17.14h9.09q3.11,0,3.1,3.11v2.3q0,3.11-3.1,3.1Z" style="fill:#fff"/><path d="M1522.94,338.5V342c0,2.07-.35,3.1-.92,3.1h-1c-3.1,0-6,1.5-8.51,4.37a15,15,0,0,0-3.91,10.47v31.52q0,3.1-3.11,3.11h-3.68q-3.11,0-3.1-3.11V339q0-3.1,3.1-3.11h3.11q3.11,0,3.1,3.11v4.48c1.84-4,7.48-8.05,12.89-8.05A3.56,3.56,0,0,1,1522.94,338.5Z" style="fill:#fff"/><path d="M1570.33,356v35.43q0,3.1-3.1,3.11h-3.11q-3.11,0-3.1-3.11v-2.87c-3.34,4.71-8.17,7.13-14.5,7.13-9.32,0-16.1-6.21-16.1-15.88,0-9.89,6.44-15.76,19.32-17.71l10.7-1.5v-4.94c0-8.06-3.11-12.08-9.2-12.08-5.64,0-9,3-10,8.86-.34,1.95-1.5,3-3.22,3h-3.22c-2.19,0-3.22-1.15-3-3.34,1.49-10.93,8.62-17.25,19.78-17.25C1563.55,334.82,1570.33,342.75,1570.33,356Zm-9.89,12.2-8.4,1.26c-7.93,1.27-11.62,3.68-11.62,9.55,0,5.41,2.88,8.17,8.52,8.17,6.9,0,11.5-5,11.5-10.59Z" style="fill:#fff"/><path d="M1623.82,354.26c.24,2.18-.8,3.22-3,3.22h-3.22c-1.95,0-3-1-3.22-3-1-7.37-4.6-11.05-10.93-11.05-7,0-11.27,5.41-11.27,13.69v16.11c0,8.63,4.26,13.69,11.27,13.69,6.33,0,9.9-3.68,10.93-11.05.23-1.95,1.27-3,3.22-3h3.22c2.19,0,3.23,1,3,3.22-1.26,12.08-8.51,19.56-20.36,19.56-12.77,0-21.16-8.63-21.16-22.09V356.79c0-13.35,8.16-22,21.16-22C1615.31,334.82,1622.56,342.29,1623.82,354.26Z" style="fill:#fff"/><path d="M1649.13,344.36l-.23,32.79c0,6.79,2.07,9.32,6.67,9.32a16.67,16.67,0,0,0,2.19-.23c2.3-.35,3.45.46,3.45,2.64v2.53c0,2-.8,3.11-2.53,3.45a28,28,0,0,1-5.64.58c-9.43,0-14.15-5.06-14-15.19l.11-35.89h-5.63q-3.1,0-3.11-3.1V339q0-3.1,3.11-3.11h5.63l.12-17.14c0-2.07,1-3.11,3.11-3.11h3.79q3.1,0,3.11,3.11l-.12,17.14h9.09q3.1,0,3.11,3.11v2.3q0,3.11-3.11,3.1Z" style="fill:#fff"/><path d="M1691.58,334.82c6.67,0,12,1.95,15.88,6s5.75,9.32,5.75,16v16.79c0,13.35-8.29,22.09-21.63,22.09s-21.74-8.63-21.74-22.09V356.79c0-6.67,2-12,5.87-16S1684.91,334.82,1691.58,334.82Zm0,8.74a10.79,10.79,0,0,0-8.63,3.68c-2.18,2.41-3.22,5.75-3.22,10v16c0,8.39,4.49,13.69,11.85,13.69s11.73-5.3,11.73-13.69v-16q0-6.39-3.1-10A10.79,10.79,0,0,0,1691.58,343.56Z" style="fill:#fff"/><path d="M1751.05,338.5V342c0,2.07-.34,3.1-.92,3.1h-1c-3.11,0-6,1.5-8.52,4.37a15,15,0,0,0-3.91,10.47v31.52q0,3.1-3.1,3.11h-3.68c-2.08,0-3.11-1-3.11-3.11V339c0-2.07,1-3.11,3.11-3.11h3.1q3.1,0,3.11,3.11v4.48c1.84-4,7.47-8.05,12.88-8.05A3.56,3.56,0,0,1,1751.05,338.5Z" style="fill:#fff"/><path d="M1796.26,349.88c.23,2.19-.8,3.23-3,3.23h-3.34c-1.61,0-2.76-.92-3.33-2.88-1-4.49-3.91-6.67-8.51-6.67-5.87,0-8.75,2.76-8.75,8.17a6.33,6.33,0,0,0,3.45,6.09,16.77,16.77,0,0,0,4.49,1.73c.69.11,3.11.92,3.68,1,11.51,3.11,16.68,7.14,16.68,17.14,0,11.16-7.25,17.95-18.86,17.95-10.7,0-18.53-6.33-20-15.65-.35-1.95.8-3.22,3-3.22h3.34c1.72,0,2.76.92,3.22,2.88,1.26,4.6,5.29,7.25,10.47,7.25,5.52,0,9.31-3,9.31-8.52,0-6-3.22-7.7-11-9.89q-9.15-2.58-13.11-5.87c-2.65-2.18-4-5.75-4-10.81,0-10.58,6.56-17,18.52-17C1788.44,334.82,1794.88,340.68,1796.26,349.88Z" style="fill:#fff"/><path d="M1339.12,473.55c.11,2.18-.92,3.22-3.11,3.22h-4.49c-2,0-3-1-3.1-3.11-1-12.31-6.79-18.52-17.26-18.52-11.16,0-17.37,8.51-17.37,22.43V501.5c0,14.27,6.33,22.43,17.37,22.43q15.71,0,17.26-18.63c.11-2.07,1.15-3.11,3.1-3.11H1336c2.19,0,3.22,1,3.11,3.22-1.39,17.37-11.51,28.3-27.73,28.3-17.83,0-28.18-12.19-28.18-32V477.34c0-19.67,10.24-32,28.18-32C1327.61,445.36,1337.73,456.18,1339.12,473.55Z" style="fill:#fff"/><path d="M1372.47,472.86c6.68,0,12,1.95,15.88,6s5.75,9.32,5.75,16v16.8c0,13.34-8.28,22.08-21.63,22.08s-21.74-8.63-21.74-22.08v-16.8c0-6.67,2-12,5.87-16S1365.8,472.86,1372.47,472.86Zm0,8.74a10.8,10.8,0,0,0-8.62,3.68c-2.19,2.42-3.22,5.75-3.22,10v16c0,8.4,4.48,13.69,11.84,13.69s11.74-5.29,11.74-13.69v-16q0-6.39-3.11-10A10.8,10.8,0,0,0,1372.47,481.6Z" style="fill:#fff"/><path d="M1448.51,493.1v36.36q0,3.1-3.1,3.1h-3.8q-3.1,0-3.11-3.1v-34.4c0-7.82-3.56-12.65-10-12.65s-10.93,5.4-10.93,12.76v34.29q0,3.1-3.11,3.1h-3.68q-3.1,0-3.11-3.1V477q0-3.11,3.11-3.11H1414q3.11,0,3.11,3.11v3.22c2-4,6.67-7.36,13.69-7.36C1441.72,472.86,1448.51,480.57,1448.51,493.1Z" style="fill:#fff"/><path d="M1498.32,487.93c.23,2.18-.8,3.22-3,3.22H1492c-1.61,0-2.76-.92-3.33-2.88-1-4.48-3.91-6.67-8.52-6.67-5.86,0-8.74,2.76-8.74,8.17a6.36,6.36,0,0,0,3.45,6.1,16.65,16.65,0,0,0,4.49,1.72c.69.12,3.11.92,3.68,1,11.5,3.1,16.68,7.13,16.68,17.14,0,11.15-7.25,17.94-18.87,17.94-10.69,0-18.52-6.33-20-15.64-.35-2,.8-3.22,3-3.22h3.34c1.72,0,2.76.92,3.22,2.87,1.26,4.6,5.29,7.25,10.46,7.25,5.53,0,9.32-3,9.32-8.51,0-6-3.22-7.71-11-9.9Q1470,504,1466,500.7c-2.65-2.19-4-5.76-4-10.82,0-10.58,6.56-17,18.52-17C1490.5,472.86,1496.94,478.72,1498.32,487.93Z" style="fill:#fff"/><path d="M1552.16,529.46q0,3.1-3.11,3.1h-3.22q-3.11,0-3.11-3.1v-3.11c-1.84,4-6.78,7.36-13.8,7.36-10.7,0-17.37-7.59-17.37-20.36V477q0-3.11,3.1-3.11h3.69q3.11,0,3.1,3.11v34.51c0,7.71,3.57,12.54,10.13,12.54,6.09,0,10.69-5.29,10.69-12.66V477q0-3.11,3.11-3.11h3.68q3.1,0,3.11,3.11Z" style="fill:#fff"/><path d="M1577.58,529.46q0,3.1-3.11,3.1h-3.68q-3.11,0-3.1-3.1V447.67c0-2.08,1-3.11,3.1-3.11h3.68c2.07,0,3.11,1,3.11,3.11Z" style="fill:#fff"/><path d="M1605.65,482.41l-.23,32.78c0,6.79,2.07,9.32,6.67,9.32a16.36,16.36,0,0,0,2.18-.23c2.3-.35,3.45.46,3.45,2.64v2.54c0,1.95-.8,3.1-2.53,3.45a28.6,28.6,0,0,1-5.63.57c-9.44,0-14.15-5.06-14-15.18l.12-35.89H1590q-3.11,0-3.11-3.11V477q0-3.11,3.11-3.11h5.64l.11-17.14q0-3.11,3.11-3.1h3.79q3.11,0,3.11,3.1l-.11,17.14h9.08c2.08,0,3.11,1,3.11,3.11v2.3c0,2.07-1,3.11-3.11,3.11Z" style="fill:#fff"/><path d="M1666.5,494v35.44c0,2.07-1,3.1-3.11,3.1h-3.1q-3.11,0-3.11-3.1v-2.88c-3.33,4.72-8.17,7.13-14.49,7.13-9.32,0-16.11-6.21-16.11-15.87,0-9.9,6.44-15.76,19.33-17.72l10.7-1.49v-4.95c0-8.05-3.11-12.08-9.21-12.08-5.63,0-9,3-10,8.86-.35,2-1.5,3-3.22,3H1631c-2.18,0-3.22-1.15-3-3.34,1.5-10.93,8.63-17.25,19.79-17.25C1659.71,472.86,1666.5,480.8,1666.5,494Zm-9.89,12.2-8.4,1.26c-7.94,1.27-11.62,3.69-11.62,9.55,0,5.41,2.88,8.17,8.51,8.17,6.91,0,11.51-5,11.51-10.58Z" style="fill:#fff"/><path d="M1721.72,493.1v36.36q0,3.1-3.11,3.1h-3.8q-3.11,0-3.1-3.1v-34.4c0-7.82-3.57-12.65-10-12.65s-10.93,5.4-10.93,12.76v34.29q0,3.1-3.1,3.1H1684q-3.11,0-3.1-3.1V477q0-3.11,3.1-3.11h3.23q3.11,0,3.1,3.11v3.22c2-4,6.67-7.36,13.69-7.36C1714.93,472.86,1721.72,480.57,1721.72,493.1Z" style="fill:#fff"/><path d="M1775.78,492.3c.23,2.18-.8,3.22-3,3.22h-3.22c-2,0-3-1-3.22-3-1-7.36-4.6-11-10.93-11-7,0-11.27,5.4-11.27,13.68v16.11c0,8.63,4.25,13.69,11.27,13.69,6.33,0,9.89-3.68,10.93-11,.23-2,1.26-3,3.22-3h3.22c2.19,0,3.22,1,3,3.23-1.26,12.07-8.51,19.55-20.36,19.55-12.77,0-21.17-8.63-21.17-22.08v-16.8c0-13.34,8.17-22,21.17-22C1767.27,472.86,1774.52,480.34,1775.78,492.3Z" style="fill:#fff"/><path d="M1828.58,539.69c0,13.69-7.13,22.09-20.13,22.09-11.85,0-18.64-6.67-20-17.25-.22-2.19.81-3.23,3-3.23h3.1a3.2,3.2,0,0,1,3.34,3c1,5.86,4.6,8.85,10.58,8.85,6.79,0,10.24-4,10.24-12.08V526.81c-1.73,3.68-6.56,6.9-13.34,6.9-10.7,0-17.38-7.59-17.38-20.36V477q0-3.11,3.11-3.11h3.68q3.1,0,3.11,3.11v34.51c0,7.82,3.56,12.54,10.12,12.54,6.33,0,10.7-5.29,10.7-12.77V477c0-2.07,1-3.11,3.11-3.11h3.68q3.11,0,3.1,3.11Z" style="fill:#fff"/><rect x="1119.71" y="129.16" width="5" height="464.06" style="fill:#fff"/><path d="M530.77,258.31A96,96,0,0,1,576,269.06a92.15,92.15,0,0,1,29.33,24.25,13.93,13.93,0,0,0,18.75,3L651.58,278a14.13,14.13,0,0,0,6-9.11,13.73,13.73,0,0,0-2.28-10.54c-11.92-16.94-28.26-30.72-48.57-41-22.92-11.57-48.48-17.43-76-17.43-31.12,0-59.43,7-84.11,20.87a149.45,149.45,0,0,0-58,57.8C374.93,303,368,330.77,368,361.19s6.95,58.23,20.66,82.62a149.41,149.41,0,0,0,58,57.81c24.68,13.85,53,20.87,84.11,20.87,26.77,0,51.64-5.65,73.92-16.78a140.9,140.9,0,0,0,48.81-39.48,13.84,13.84,0,0,0,2.78-10.45,14.11,14.11,0,0,0-5.6-9.38l-26.52-19.46a14,14,0,0,0-19.25,2.6,91.12,91.12,0,0,1-29.11,24c-13.39,7-28.55,10.55-45,10.55-29,0-53.18-9.61-71.87-28.58s-28.22-44-28.22-74.3,9.49-55.3,28.22-74.29S501.78,258.31,530.77,258.31Z" style="fill:#fff"/><path d="M851.25,258.31a95.86,95.86,0,0,1,45.22,10.76,91.88,91.88,0,0,1,29.33,24.24,13.94,13.94,0,0,0,18.75,3L972.05,278a14,14,0,0,0,3.73-19.65c-11.91-16.93-28.25-30.72-48.56-41-22.93-11.57-48.48-17.43-76-17.43-31.13,0-59.43,7-84.12,20.87a149.35,149.35,0,0,0-58,57.8c-13.71,24.4-20.67,52.2-20.67,82.62s7,58.23,20.67,82.62a149.31,149.31,0,0,0,58,57.81c24.68,13.85,53,20.87,84.12,20.87,26.77,0,51.64-5.65,73.91-16.78A140.72,140.72,0,0,0,974,466.23a13.76,13.76,0,0,0,2.78-10.45,14.11,14.11,0,0,0-5.6-9.38l-26.52-19.46a14,14,0,0,0-19.25,2.6,91,91,0,0,1-29.1,24c-13.4,7-28.55,10.55-45,10.55-29,0-53.18-9.61-71.88-28.58s-28.22-44-28.22-74.3,9.49-55.3,28.22-74.29S822.26,258.31,851.25,258.31Z" style="fill:#fff"/><path d="M56.9,360.28A102.53,102.53,0,0,1,75,301.49h0a100.84,100.84,0,0,1,26.74-26.68c16.54-11.24,41.44-18.22,65-18.22,22.54,0,43.6,6.85,62.59,20.35,17.21,12.23,31.67,29.36,41.83,49.53.47.93,1.54,2.53,2.13,3.4l.32.47.4.4a13.25,13.25,0,0,0,9.54,3.93h29.31a13.25,13.25,0,0,0,9.54-3.93,13.89,13.89,0,0,0,3.94-10.16V13.47A13.44,13.44,0,0,0,312.84,0H283.53A13.24,13.24,0,0,0,274,3.93,13.89,13.89,0,0,0,270,14.09v229l-.24-.23a12.83,12.83,0,0,0-1.75-1.71,157.8,157.8,0,0,0-29.57-21.06A160.27,160.27,0,0,0,219.21,211l-.21-.09-.45-.16c-2-.76-3.77-1.43-5.5-2l-2.73-.91-.17-.06c-1.06-.34-2.12-.68-3.17-1-1.44-.43-2.93-.86-4.43-1.27l-1.66-.44c-1.9-.49-3.76-.94-5.54-1.34l-.62-.13q-3.19-.69-6-1.19l-.36-.06c-4.61-.8-9.23-1.41-13.72-1.79l-.47,0c-2.47-.21-4.53-.34-6.47-.43-1.14-.05-2.29-.06-3.44-.08l-.94,0-1,0c-.57,0-1.14,0-1.71,0h-.48A156.72,156.72,0,0,0,80.3,221.61a163.61,163.61,0,0,0-58.57,58.12A154.91,154.91,0,0,0,0,360c0,3.38.1,6.81.31,10.23l-.21.06.38,4.9a157.71,157.71,0,0,0,28.59,79,155.94,155.94,0,0,0,64.27,53.63,164.11,164.11,0,0,0,68,14.68c4.59,0,9.22-.19,13.86-.56l.2,0c38.37-4.38,72.68-19.6,99.22-44a162.12,162.12,0,0,0,49.46-88.73,11.93,11.93,0,0,0-11.68-14.25h-34a11.93,11.93,0,0,0-11.45,8.65c-3.07,10.92-8.53,21.31-18.87,35.86a110.37,110.37,0,0,1-26.83,27.16,103.78,103.78,0,0,1-59.08,19.15,101.42,101.42,0,0,1-37.49-6.57,105.39,105.39,0,0,1-67.95-97v-.28l.18-.59Z" style="fill:#fff"/><path d="M251.72,378a7,7,0,0,0-5.79-3.1H190.34a10.19,10.19,0,0,0-7.4,3h0a10.12,10.12,0,0,0-3.05,7.39v29.06a10.09,10.09,0,0,0,3.05,7.38,10.93,10.93,0,0,0,8,3l21.63,0a26.57,26.57,0,0,0,20.63-9.68c1.63-2,3.25-4.12,4.81-6.31,7-9.86,11.41-17.35,14.31-24.3A6.91,6.91,0,0,0,251.72,378Z" style="fill:#00deb6"/><path d="M321.47,449.64a6.77,6.77,0,0,0-7.75,2.77,174.23,174.23,0,0,1-28.69,33,27,27,0,0,0-8.89,20.11v2.85a10.89,10.89,0,0,0,3.07,8,10.17,10.17,0,0,0,7.42,3h29.31A10.43,10.43,0,0,0,326.42,509V456.3A6.92,6.92,0,0,0,321.47,449.64Z" style="fill:#00deb6"/></g></g></svg>